<?xml version="1.0" encoding="UTF-8"?>
<svg width="120px" height="25px" viewBox="0 0 120 25" version="1.1" xmlns="http://www.w3.org/2000/svg" xmlns:xlink="http://www.w3.org/1999/xlink">
    <!-- Generator: Sketch 64 (93537) - https://sketch.com -->
    <title>Group 15</title>
    <desc>Created with Sketch.</desc>
    <defs>
        <polygon id="path-1" points="0.0286308725 0.217787919 11.8241879 0.217787919 11.8241879 13.6943517 0.0286308725 13.6943517"></polygon>
        <polygon id="path-3" points="0 24.5865503 119.099356 24.5865503 119.099356 0 0 0"></polygon>
    </defs>
    <g id="UnlockdownHomepage" stroke="none" stroke-width="1" fill="none" fill-rule="evenodd">
        <g id="Desktop:-Unlockdown-Homepage" transform="translate(-89.000000, -1740.000000)">
            <g id="Group-15" transform="translate(89.000000, 1740.000000)">
                <path d="M91.5950174,5.47547919 L81.1368966,5.47547919 C81.0252725,5.47547919 80.9351517,5.56608322 80.9351517,5.67770738 L80.9351517,7.71327785 C80.9351517,7.8246604 81.0252725,7.91526443 81.1368966,7.91526443 L88.1781584,7.91526443 L80.7382389,16.9222711 C80.7085208,16.9582711 80.6920913,17.0039356 80.6920913,17.0508081 L80.6920913,18.7500564 C80.6920913,18.8616805 80.7826953,18.952043 80.8940779,18.952043 L91.5950174,18.952043 C91.7066416,18.952043 91.797004,18.8616805 91.797004,18.7500564 L91.797004,16.7147275 C91.797004,16.6031034 91.7066416,16.5127409 91.5950174,16.5127409 L84.3111785,16.5127409 L91.7508564,7.50549262 C91.7808161,7.46949262 91.797004,7.42382819 91.797004,7.3769557 L91.797004,5.67770738 C91.797004,5.56608322 91.7066416,5.47547919 91.5950174,5.47547919" id="Fill-1" fill="#FFFFFF"></path>
                <path d="M104.296083,16.4940161 L97.0091034,16.4940161 L97.0091034,13.3871436 L103.362499,13.3871436 C103.474365,13.3871436 103.564486,13.2967812 103.564486,13.1849154 L103.564486,11.1307409 C103.564486,11.0193584 103.474365,10.9287544 103.362499,10.9287544 L97.0091034,10.9287544 L97.0091034,7.93374765 L104.202821,7.93374765 C104.314446,7.93374765 104.404566,7.84338523 104.404566,7.73176107 L104.404566,5.67758658 C104.404566,5.56620403 104.314446,5.4756 104.202821,5.4756 L94.5103651,5.4756 C94.3987409,5.4756 94.3081369,5.56620403 94.3081369,5.67758658 L94.3081369,18.7501772 C94.3081369,18.8618013 94.3987409,18.9521638 94.5103651,18.9521638 L104.296083,18.9521638 C104.407707,18.9521638 104.49807,18.8618013 104.49807,18.7501772 L104.49807,16.6960027 C104.49807,16.5843785 104.407707,16.4940161 104.296083,16.4940161" id="Fill-3" fill="#FFFFFF"></path>
                <g id="Group-7" transform="translate(107.275168, 5.257691)">
                    <mask id="mask-2" fill="white">
                        <use xlink:href="#path-1"></use>
                    </mask>
                    <g id="Clip-6"></g>
                    <path d="M11.6225638,0.217787919 L9.36253691,0.217787919 C9.25115436,0.217787919 9.16103356,0.308391946 9.16103356,0.420016107 L9.16103356,8.86841879 L2.51891275,0.296069799 C2.48073826,0.246781208 2.42202685,0.217787919 2.35969128,0.217787919 L0.23061745,0.217787919 C0.118751678,0.217787919 0.0286308725,0.308391946 0.0286308725,0.420016107 L0.0286308725,13.4923651 C0.0286308725,13.6039893 0.118751678,13.6943517 0.23061745,13.6943517 L2.49016107,13.6943517 C2.60178523,13.6943517 2.69214765,13.6039893 2.69214765,13.4923651 L2.69214765,4.7825396 L9.53939597,13.6163114 C9.57757047,13.6656 9.63628188,13.6943517 9.69861745,13.6943517 L11.6225638,13.6943517 C11.7339463,13.6943517 11.8243087,13.6039893 11.8243087,13.4923651 L11.8243087,0.420016107 C11.8243087,0.308391946 11.7339463,0.217787919 11.6225638,0.217787919" id="Fill-5" fill="#FFFFFF" mask="url(#mask-2)"></path>
                </g>
                <mask id="mask-4" fill="white">
                    <use xlink:href="#path-3"></use>
                </mask>
                <g id="Clip-9"></g>
                <path d="M2.29119463,22.3142013 L74.7587114,22.3142013 L74.7587114,2.2725906 L2.29119463,2.2725906 L2.29119463,22.3142013 Z M76.7242148,0 L0.325932886,0 C0.146174497,0 0,0.145449664 0,0.324 L0,24.2625503 C0,24.4411007 0.146174497,24.5865503 0.325932886,24.5865503 L76.7242148,24.5865503 C76.9037315,24.5865503 77.0496644,24.4411007 77.0496644,24.2625503 L77.0496644,0.324 C77.0496644,0.145449664 76.9037315,0 76.7242148,0 L76.7242148,0 Z" id="Fill-8" fill="#FFFFFF" mask="url(#mask-4)"></path>
                <path d="M30.775651,5.55499329 L21.045745,5.55499329 C20.9343624,5.55499329 20.8437584,5.64559732 20.8437584,5.75697987 L20.8437584,18.8298121 C20.8437584,18.9411946 20.9343624,19.031557 21.045745,19.031557 L23.3427383,19.031557 C23.4541208,19.031557 23.5447248,18.9411946 23.5447248,18.8298121 L23.5447248,13.7091141 L29.9350872,13.7091141 C30.0464698,13.7091141 30.1370738,13.6187517 30.1370738,13.5073691 L30.1370738,11.415745 C30.1370738,11.3041208 30.0464698,11.2137584 29.9350872,11.2137584 L23.5447248,11.2137584 L23.5447248,8.0505906 L30.775651,8.0505906 C30.8870336,8.0505906 30.9776376,7.96022819 30.9776376,7.84860403 L30.9776376,5.75697987 C30.9776376,5.64559732 30.8870336,5.55499329 30.775651,5.55499329" id="Fill-10" fill="#FFFFFF" mask="url(#mask-4)"></path>
                <path d="M43.6716242,5.55499329 L33.9417181,5.55499329 C33.8303356,5.55499329 33.7397315,5.64559732 33.7397315,5.75697987 L33.7397315,18.8298121 C33.7397315,18.9411946 33.8303356,19.031557 33.9417181,19.031557 L36.2387114,19.031557 C36.3505772,19.031557 36.440698,18.9411946 36.440698,18.8298121 L36.440698,13.7091141 L42.8310604,13.7091141 C42.942443,13.7091141 43.033047,13.6187517 43.033047,13.5073691 L43.033047,11.415745 C43.033047,11.3041208 42.942443,11.2137584 42.8310604,11.2137584 L36.440698,11.2137584 L36.440698,8.0505906 L43.6716242,8.0505906 C43.7830067,8.0505906 43.8736107,7.96022819 43.8736107,7.84860403 L43.8736107,5.75697987 C43.8736107,5.64559732 43.7830067,5.55499329 43.6716242,5.55499329" id="Fill-11" fill="#FFFFFF" mask="url(#mask-4)"></path>
                <path d="M56.7030201,16.5735302 L49.4160403,16.5735302 L49.4160403,13.4664161 L55.7691946,13.4664161 C55.8810604,13.4664161 55.9711812,13.3760537 55.9711812,13.2646711 L55.9711812,11.210255 C55.9711812,11.0988725 55.8810604,11.0085101 55.7691946,11.0085101 L49.4160403,11.0085101 L49.4160403,8.01326174 L56.6095168,8.01326174 C56.7213826,8.01326174 56.8115034,7.92265772 56.8115034,7.81127517 L56.8115034,5.75685906 C56.8115034,5.64571812 56.7213826,5.55511409 56.6095168,5.55511409 L46.917302,5.55511409 C46.8054362,5.55511409 46.7153154,5.64571812 46.7153154,5.75685906 L46.7153154,18.8299329 C46.7153154,18.9413154 46.8054362,19.0316779 46.917302,19.0316779 L56.7030201,19.0316779 C56.8148859,19.0316779 56.9050067,18.9413154 56.9050067,18.8299329 L56.9050067,16.7755168 C56.9050067,16.6638926 56.8148859,16.5735302 56.7030201,16.5735302" id="Fill-12" fill="#FFFFFF" mask="url(#mask-4)"></path>
                <path d="M62.332043,8.05061477 L65.4724993,8.05061477 C66.6155597,8.05061477 67.9787275,8.39491007 67.9787275,10.0337557 C67.9787275,11.2683866 67.0255732,12.0355007 65.4915866,12.0355007 L62.332043,12.0355007 L62.332043,8.05061477 Z M67.7240698,13.9927893 C69.6306201,13.3658094 70.716902,11.8890846 70.716902,9.90280268 C70.716902,7.2211651 68.7791839,5.55501745 65.6592644,5.55501745 L59.8328215,5.55501745 C59.7216805,5.55501745 59.6310765,5.64562148 59.6310765,5.75700403 L59.6310765,18.8298362 C59.6310765,18.9412188 59.7216805,19.0316886 59.8328215,19.0316886 L62.1300564,19.0316886 C62.2414389,19.0316886 62.332043,18.9412188 62.332043,18.8298362 L62.332043,14.4748027 L64.9010899,14.4748027 L68.0533852,18.9462926 C68.0910765,18.9996886 68.1526872,19.0316886 68.2176805,19.0316886 L70.9261369,19.0316886 C70.927345,19.0316886 70.9287946,19.0316886 70.9300027,19.0316886 C71.0416268,19.0316886 71.1319893,18.9412188 71.1319893,18.8298362 C71.1319893,18.7728161 71.1083114,18.7215946 71.0708617,18.6848698 L67.7240698,13.9927893 Z" id="Fill-13" fill="#FFFFFF" mask="url(#mask-4)"></path>
                <path d="M12.1423651,16.6943356 C9.81782819,16.6943356 8.06470067,14.7740134 8.06470067,12.2274362 C8.06470067,9.70212081 9.80212349,7.79798658 12.1066067,7.79798658 C14.4311436,7.79798658 16.1842711,9.71830872 16.1842711,12.2648859 C16.1842711,14.7899597 14.4466067,16.6943356 12.1423651,16.6943356 M12.1571034,5.33114094 C8.32467383,5.33114094 5.43476779,8.33218792 5.43476779,12.312 C5.43476779,16.2705503 8.30969396,19.2558926 12.1211034,19.2558926 C15.9537745,19.2558926 18.8436805,16.254604 18.8436805,12.2745503 C18.8436805,8.31624161 15.968996,5.33114094 12.1571034,5.33114094" id="Fill-14" fill="#FFFFFF" mask="url(#mask-4)"></path>
            </g>
        </g>
    </g>
</svg>